<svg version="1.1" xmlns="http://www.w3.org/2000/svg" xmlns:xlink="http://www.w3.org/1999/xlink" width="800" height="800"><defs/><g transform="scale(2,2)"><g id="background-6f0b668a"><rect fill="white" stroke="none" x="0" y="0" width="400" height="400" class="dcg-svg-background"/></g><g id="background-images-6f0b668a"/><g id="graphpaper-6f0b668a"><g id="grid-6f0b668a"><g><path fill="none" stroke="rgb(0,0,0)" class="dcg-svg-minor-gridline" paint-order="fill stroke markers" d=" M 4.5 0 L 4.5 400" stroke-opacity="0.2" stroke-miterlimit="10" stroke-dasharray=""/><path fill="none" stroke="rgb(0,0,0)" class="dcg-svg-minor-gridline" paint-order="fill stroke markers" d=" M 33.5 0 L 33.5 400" stroke-opacity="0.2" stroke-miterlimit="10" stroke-dasharray=""/><path fill="none" stroke="rgb(0,0,0)" class="dcg-svg-minor-gridline" paint-order="fill stroke markers" d=" M 62.5 0 L 62.5 400" stroke-opacity="0.2" stroke-miterlimit="10" stroke-dasharray=""/><path fill="none" stroke="rgb(0,0,0)" class="dcg-svg-minor-gridline" paint-order="fill stroke markers" d=" M 91.5 0 L 91.5 400" stroke-opacity="0.2" stroke-miterlimit="10" stroke-dasharray=""/><path fill="none" stroke="rgb(0,0,0)" class="dcg-svg-minor-gridline" paint-order="fill stroke markers" d=" M 120.5 0 L 120.5 400" stroke-opacity="0.2" stroke-miterlimit="10" stroke-dasharray=""/><path fill="none" stroke="rgb(0,0,0)" class="dcg-svg-minor-gridline" paint-order="fill stroke markers" d=" M 149.5 0 L 149.5 400" stroke-opacity="0.2" stroke-miterlimit="10" stroke-dasharray=""/><path fill="none" stroke="rgb(0,0,0)" class="dcg-svg-minor-gridline" paint-order="fill stroke markers" d=" M 178.5 0 L 178.5 400" stroke-opacity="0.2" stroke-miterlimit="10" stroke-dasharray=""/><path fill="none" stroke="rgb(0,0,0)" class="dcg-svg-minor-gridline" paint-order="fill stroke markers" d=" M 207.5 0 L 207.5 400" stroke-opacity="0.2" stroke-miterlimit="10" stroke-dasharray=""/><path fill="none" stroke="rgb(0,0,0)" class="dcg-svg-minor-gridline" paint-order="fill stroke markers" d=" M 236.5 0 L 236.5 400" stroke-opacity="0.2" stroke-miterlimit="10" stroke-dasharray=""/><path fill="none" stroke="rgb(0,0,0)" class="dcg-svg-minor-gridline" paint-order="fill stroke markers" d=" M 265.5 0 L 265.5 400" stroke-opacity="0.2" stroke-miterlimit="10" stroke-dasharray=""/><path fill="none" stroke="rgb(0,0,0)" class="dcg-svg-minor-gridline" paint-order="fill stroke markers" d=" M 294.5 0 L 294.5 400" stroke-opacity="0.2" stroke-miterlimit="10" stroke-dasharray=""/><path fill="none" stroke="rgb(0,0,0)" class="dcg-svg-minor-gridline" paint-order="fill stroke markers" d=" M 323.5 0 L 323.5 400" stroke-opacity="0.2" stroke-miterlimit="10" stroke-dasharray=""/><path fill="none" stroke="rgb(0,0,0)" class="dcg-svg-minor-gridline" paint-order="fill stroke markers" d=" M 352.5 0 L 352.5 400" stroke-opacity="0.2" stroke-miterlimit="10" stroke-dasharray=""/><path fill="none" stroke="rgb(0,0,0)" class="dcg-svg-minor-gridline" paint-order="fill stroke markers" d=" M 381.5 0 L 381.5 400" stroke-opacity="0.2" stroke-miterlimit="10" stroke-dasharray=""/><path fill="none" stroke="rgb(0,0,0)" class="dcg-svg-minor-gridline" paint-order="fill stroke markers" d=" M 0 383.5 L 400 383.5" stroke-opacity="0.2" stroke-miterlimit="10" stroke-dasharray=""/><path fill="none" stroke="rgb(0,0,0)" class="dcg-svg-minor-gridline" paint-order="fill stroke markers" d=" M 0 346.5 L 400 346.5" stroke-opacity="0.2" stroke-miterlimit="10" stroke-dasharray=""/><path fill="none" stroke="rgb(0,0,0)" class="dcg-svg-minor-gridline" paint-order="fill stroke markers" d=" M 0 309.5 L 400 309.5" stroke-opacity="0.2" stroke-miterlimit="10" stroke-dasharray=""/><path fill="none" stroke="rgb(0,0,0)" class="dcg-svg-minor-gridline" paint-order="fill stroke markers" d=" M 0 271.5 L 400 271.5" stroke-opacity="0.2" stroke-miterlimit="10" stroke-dasharray=""/><path fill="none" stroke="rgb(0,0,0)" class="dcg-svg-minor-gridline" paint-order="fill stroke markers" d=" M 0 234.5 L 400 234.5" stroke-opacity="0.2" stroke-miterlimit="10" stroke-dasharray=""/><path fill="none" stroke="rgb(0,0,0)" class="dcg-svg-minor-gridline" paint-order="fill stroke markers" d=" M 0 197.5 L 400 197.5" stroke-opacity="0.2" stroke-miterlimit="10" stroke-dasharray=""/><path fill="none" stroke="rgb(0,0,0)" class="dcg-svg-minor-gridline" paint-order="fill stroke markers" d=" M 0 160.5 L 400 160.5" stroke-opacity="0.2" stroke-miterlimit="10" stroke-dasharray=""/><path fill="none" stroke="rgb(0,0,0)" class="dcg-svg-minor-gridline" paint-order="fill stroke markers" d=" M 0 123.5 L 400 123.5" stroke-opacity="0.2" stroke-miterlimit="10" stroke-dasharray=""/><path fill="none" stroke="rgb(0,0,0)" class="dcg-svg-minor-gridline" paint-order="fill stroke markers" d=" M 0 86.5 L 400 86.5" stroke-opacity="0.2" stroke-miterlimit="10" stroke-dasharray=""/><path fill="none" stroke="rgb(0,0,0)" class="dcg-svg-minor-gridline" paint-order="fill stroke markers" d=" M 0 49.5 L 400 49.5" stroke-opacity="0.2" stroke-miterlimit="10" stroke-dasharray=""/><path fill="none" stroke="rgb(0,0,0)" class="dcg-svg-minor-gridline" paint-order="fill stroke markers" d=" M 0 12.5 L 400 12.5" stroke-opacity="0.2" stroke-miterlimit="10" stroke-dasharray=""/><path fill="none" stroke="rgb(0,0,0)" class="dcg-svg-major-gridline" paint-order="fill stroke markers" d=" M 33.5 0 L 33.5 400" stroke-opacity="0.2500000000000001" stroke-miterlimit="10" stroke-dasharray=""/><path fill="none" stroke="rgb(0,0,0)" class="dcg-svg-major-gridline" paint-order="fill stroke markers" d=" M 178.5 0 L 178.5 400" stroke-opacity="0.2500000000000001" stroke-miterlimit="10" stroke-dasharray=""/><path fill="none" stroke="rgb(0,0,0)" class="dcg-svg-major-gridline" paint-order="fill stroke markers" d=" M 323.5 0 L 323.5 400" stroke-opacity="0.2500000000000001" stroke-miterlimit="10" stroke-dasharray=""/><path fill="none" stroke="rgb(0,0,0)" class="dcg-svg-major-gridline" paint-order="fill stroke markers" d=" M 0 309.5 L 400 309.5" stroke-opacity="0.2500000000000001" stroke-miterlimit="10" stroke-dasharray=""/><path fill="none" stroke="rgb(0,0,0)" class="dcg-svg-major-gridline" paint-order="fill stroke markers" d=" M 0 160.5 L 400 160.5" stroke-opacity="0.2500000000000001" stroke-miterlimit="10" stroke-dasharray=""/><path fill="none" stroke="rgb(0,0,0)" class="dcg-svg-major-gridline" paint-order="fill stroke markers" d=" M 0 12.5 L 400 12.5" stroke-opacity="0.2500000000000001" stroke-miterlimit="10" stroke-dasharray=""/></g></g><g id="axis-6f0b668a"><g/></g></g><g id="expressions-6f0b668a"><g id="sketch-6f0b668a"><title>Expression 2</title><path fill="#fa7e19" stroke="none" paint-order="stroke fill markers" d="" fill-opacity="0.4"/><g><path fill="none" stroke="#fa7e19" class="dcg-svg-curve" paint-order="fill stroke markers" d=" M 0 309.01286652481923 L 0 309.01286652481923 L 64.55078125000001 308.8835404086576 L 73.53515625 308.5957990723664 L 79.39453125 308.1629443721481 L 83.98437500000003 307.5701725414388 L 87.79296875000001 306.8170712463932 L 91.01562500000001 305.9219206057455 L 93.94531249999999 304.8399992133005 L 96.58203125000003 303.5934595150697 L 99.12109375000003 302.0966333733062 L 101.46484375000001 300.40920134653845 L 103.80859375000001 298.3797840388745 L 106.05468750000001 296.0667570425272 L 108.30078125000001 293.3448953244156 L 110.64453125000001 290.01475702023356 L 112.890625 286.3007639949601 L 115.0390625 282.22157704836 L 117.1875 277.58281988122263 L 119.33593750000001 272.342811118859 L 121.484375 266.4634862640802 L 123.63281250000003 259.9118996822906 L 125.78125 252.6618206260978 L 128.02734375 244.31608044351833 L 130.37109375 234.7635894037885 L 132.8125 223.90381000802643 L 135.3515625 211.65662709471457 L 138.08593750000003 197.45041059723997 L 141.11328125000003 180.63085317148122 L 144.7265625 159.35643745036964 L 150.1953125 125.7598750044503 L 155.859375 91.31307215774942 L 159.08203125 72.95304059937945 L 161.71875 59.09259932000782 L 163.96484375 48.35154822014022 L 165.91796875 39.952827373471166 L 167.77343750000003 32.886690877868716 L 169.43359375 27.386654019902664 L 170.99609375000003 22.968182111850865 L 172.36328125 19.735249386972214 L 173.73046875 17.11561318422406 L 175 15.247381031542886 L 176.171875 14.01472310841325 L 177.1484375 13.352782910104565 L 178.02734375 13.043016065256666 L 178.90625 13.005083406258905 L 179.78515625 13.239089465765005 L 180.66406250000003 13.74438952563412 L 181.64062500000003 14.622301453356101 L 182.71484375 15.969257269403442 L 183.984375 18.068581465563 L 185.25390625000003 20.706206767597507 L 186.62109375 24.131532395095746 L 188.0859375 28.449580416523816 L 189.64843750000003 33.75896961816977 L 191.40625 40.54571531572037 L 193.26171875000003 48.56878298231436 L 195.41015625 58.84296933324649 L 197.75390625000003 71.08427582553625 L 200.5859375 87.02346284471534 L 204.19921875 108.61454955555814 L 216.40625 182.57561233159123 L 219.62890625 200.31418577288414 L 222.4609375 214.80190900304802 L 225.09765625000003 227.25345182984034 L 227.63671875 238.24122359315703 L 229.98046875 247.48869744237518 L 232.32421875 255.87623169269938 L 234.57031250000003 263.12147518721474 L 236.81640625 269.6159890724621 L 238.96484375 275.15694899249667 L 241.11328125 280.0779318108377 L 243.26171875 284.41907103382795 L 245.5078125 288.3842682225579 L 247.75390625000003 291.81370487063435 L 250.09765625 294.8766683086629 L 252.5390625 297.5685203069126 L 254.8828125 299.73129120154357 L 257.32421875 301.6024269939055 L 259.86328125 303.19333195072124 L 262.5 304.52158574104436 L 265.33203125 305.6437470022954 L 268.45703125 306.58660538918144 L 271.875 307.34095049848713 L 275.87890625 307.95094989380084 L 280.76171875 308.4179101052336 L 287.109375 308.7443436402884 L 296.38671875 308.9358540357855 L 315.234375 309.0084252668608 L 400 309.01286823023463" stroke-linecap="round" stroke-linejoin="round" stroke-miterlimit="10" stroke-width="2.5" stroke-opacity="0.9" stroke-dasharray=""/></g></g><g id="sketch-6f0b668a"><title>Expression 5</title><path fill="#c74440" stroke="none" paint-order="stroke fill markers" d="" fill-opacity="0.4"/><path fill="#c74440" stroke="none" paint-order="stroke fill markers" d="" fill-opacity="0.4"/><path fill="#c74440" stroke="none" class="dcg-svg-region" paint-order="stroke fill markers" d=" M 149.59705363371802 309.01286823029875 L 207.5816670120522 309.01286823029875 L 207.5816670120522 129.46434641326547 L 204.19921875 108.61454955555814 L 200.5859375 87.02346284471534 L 197.75390625000003 71.08427582553625 L 195.41015625 58.84296933324649 L 193.26171875000003 48.56878298231436 L 191.40625 40.54571531572037 L 189.64843750000003 33.75896961816977 L 188.0859375 28.449580416523816 L 186.62109375 24.131532395095746 L 185.25390625000003 20.706206767597507 L 183.984375 18.068581465563 L 182.71484375 15.969257269403442 L 181.64062500000003 14.622301453356101 L 180.66406250000003 13.74438952563412 L 179.78515625 13.239089465765005 L 178.90625 13.005083406258905 L 178.02734375 13.043016065256666 L 177.1484375 13.352782910104565 L 176.171875 14.01472310841325 L 175 15.247381031542886 L 173.73046875 17.11561318422406 L 172.36328125 19.735249386972214 L 170.99609375000003 22.968182111850865 L 169.43359375 27.386654019902664 L 167.77343750000003 32.886690877868716 L 165.91796875 39.952827373471166 L 163.96484375 48.35154822014022 L 161.71875 59.09259932000782 L 159.08203125 72.95304059937945 L 155.859375 91.31307215774942 L 149.59705363371802 129.46434641326547" fill-opacity="0.4"/></g><g id="sketch-6f0b668a"><title>Expression 6</title><path fill="#2d70b3" stroke="none" paint-order="stroke fill markers" d="" fill-opacity="0.4"/><path fill="#2d70b3" stroke="none" paint-order="stroke fill markers" d="" fill-opacity="0.4"/><path fill="#2d70b3" stroke="none" class="dcg-svg-region" paint-order="stroke fill markers" d=" M 120.60474694455093 309.01286823029875 L 149.59705363371802 309.01286823029875 L 149.59705363371802 129.46434641326556 L 147.36328125000003 143.27121193805496 L 143.06640625 169.26760736397625 L 139.74609375 188.3570043493835 L 136.81640625000003 204.17117879557458 L 134.1796875 217.4268060288975 L 131.640625 229.23103316348505 L 129.29687500000003 239.24879128785966 L 127.05078125000001 248.04171290219878 L 124.8046875 256.04525597681726 L 122.65625000000001 262.97508224226107 L 120.60474694455093 268.95017780285025" fill-opacity="0.4"/></g><g id="sketch-6f0b668a"><title>Expression 7</title><path fill="#2d70b3" stroke="none" paint-order="stroke fill markers" d="" fill-opacity="0.4"/><path fill="#2d70b3" stroke="none" paint-order="stroke fill markers" d="" fill-opacity="0.4"/><path fill="#2d70b3" stroke="none" class="dcg-svg-region" paint-order="stroke fill markers" d=" M 207.5816670120522 309.01286823029875 L 236.5739737012193 309.01286823029875 L 236.5739737012193 268.95017780285025 L 235.25390625000003 265.1761310182926 L 233.00781250000003 258.16247039240386 L 230.76171875 250.37962905169178 L 228.41796875 241.41959630134673 L 225.97656250000003 231.17008996808642 L 223.4375 219.534324674351 L 220.703125 205.93907651516258 L 217.67578125 189.7093651182169 L 214.06250000000003 168.97330904790567 L 207.5816670120522 129.46434641326556" fill-opacity="0.4"/></g><g id="sketch-6f0b668a"><title>Expression 8</title><path fill="#6042a6" stroke="none" paint-order="stroke fill markers" d="" fill-opacity="0.4"/><path fill="#6042a6" stroke="none" paint-order="stroke fill markers" d="" fill-opacity="0.4"/><path fill="#6042a6" stroke="none" class="dcg-svg-region" paint-order="stroke fill markers" d=" M 91.61244025538385 309.01286823029875 L 120.60474694455091 309.01286823029875 L 120.60474694455091 268.9501778028503 L 119.82421875000003 271.06401525781075 L 117.67578125 276.44613987466886 L 115.52734375000001 281.217992133397 L 113.37890625 285.4205571614571 L 111.13281250000001 289.252720319147 L 108.7890625 292.69423179684617 L 106.4453125 295.624139164099 L 104.19921875000003 298.0047624265342 L 101.85546875000001 300.09604902491384 L 99.51171875 301.8370878570455 L 97.0703125 303.3298453127443 L 94.43359375000001 304.63031242035794 L 91.61244025538385 305.72432234169196" fill-opacity="0.4"/></g><g id="sketch-6f0b668a"><title>Expression 9</title><path fill="#6042a6" stroke="none" paint-order="stroke fill markers" d="" fill-opacity="0.4"/><path fill="#6042a6" stroke="none" paint-order="stroke fill markers" d="" fill-opacity="0.4"/><path fill="#6042a6" stroke="none" class="dcg-svg-region" paint-order="stroke fill markers" d=" M 236.5739737012193 309.01286823029875 L 265.5662803903864 309.01286823029875 L 265.5662803903864 305.72432234169196 L 265.0390625 305.54050850269374 L 262.20703125 304.3885282099086 L 259.5703125 303.02642804749445 L 257.12890625 301.46577674249465 L 254.6875 299.5654976852448 L 252.34375000000003 297.3704361499862 L 249.90234375000003 294.6401481138757 L 247.55859375 291.53545737341653 L 245.31250000000003 288.06147692541504 L 243.06640625 284.04726639982084 L 240.91796875 279.6551580637824 L 238.76953125 274.6794178850474 L 236.5739737012193 268.9501778028503" fill-opacity="0.4"/></g><g id="sketch-6f0b668a"><title>Expression 10</title><path fill="#c74440" stroke="none" paint-order="stroke fill markers" d="" fill-opacity="0.4"/><g><path fill="none" stroke="#c74440" class="dcg-svg-curve" paint-order="fill stroke markers" d=" M 149.59705363371802 129.44262325099564 L 160.59705363371802 129.44262325099564 M 167.59705363371802 129.44262325099564 L 178.59705363371802 129.44262325099564 M 185.59705363371802 129.44262325099564 L 196.59705363371802 129.44262325099564 M 203.59705363371802 129.44262325099564 L 207.5816670120522 129.44262325099564" stroke-linecap="round" stroke-linejoin="round" stroke-miterlimit="10" stroke-width="2.5" stroke-opacity="0.9" stroke-dasharray=""/></g></g><g id="sketch-6f0b668a"><title>Expression 11</title><path fill="#2d70b3" stroke="none" paint-order="stroke fill markers" d="" fill-opacity="0.4"/><g><path fill="none" stroke="#2d70b3" class="dcg-svg-curve" paint-order="fill stroke markers" d=" M 120.60474694455093 268.94347472252036 L 131.60474694455093 268.94347472252036 M 138.60474694455093 268.94347472252036 L 149.60474694455093 268.94347472252036 M 156.60474694455093 268.94347472252036 L 167.60474694455093 268.94347472252036 M 174.60474694455093 268.94347472252036 L 185.60474694455093 268.94347472252036 M 192.60474694455093 268.94347472252036 L 203.60474694455093 268.94347472252036 M 210.60474694455093 268.94347472252036 L 221.60474694455093 268.94347472252036 M 228.60474694455093 268.94347472252036 L 236.5739737012193 268.94347472252036" stroke-linecap="round" stroke-linejoin="round" stroke-miterlimit="10" stroke-width="2.5" stroke-opacity="0.9" stroke-dasharray=""/></g></g><g id="sketch-6f0b668a"><title>Expression 12</title><path fill="#6042a6" stroke="none" paint-order="stroke fill markers" d="" fill-opacity="0.4"/><g><path fill="none" stroke="#6042a6" class="dcg-svg-curve" paint-order="fill stroke markers" d=" M 91.61244025538383 305.7479546852205 L 102.61244025538383 305.7479546852205 M 109.61244025538383 305.7479546852205 L 120.61244025538383 305.7479546852205 M 127.61244025538383 305.7479546852205 L 138.61244025538383 305.7479546852205 M 145.61244025538383 305.7479546852205 L 156.61244025538383 305.7479546852205 M 163.61244025538383 305.7479546852205 L 174.61244025538383 305.7479546852205 M 181.61244025538383 305.7479546852205 L 192.61244025538383 305.7479546852205 M 199.61244025538383 305.7479546852205 L 210.61244025538383 305.7479546852205 M 217.61244025538383 305.7479546852205 L 228.61244025538383 305.7479546852205 M 235.61244025538383 305.7479546852205 L 246.61244025538383 305.7479546852205 M 253.61244025538383 305.7479546852205 L 264.61244025538383 305.7479546852205" stroke-linecap="round" stroke-linejoin="round" stroke-miterlimit="10" stroke-width="2.5" stroke-opacity="0.9" stroke-dasharray=""/></g></g><g id="sketch-6f0b668a"><title>99.7%</title></g><g id="sketch-6f0b668a"><title>95%</title></g><g id="sketch-6f0b668a"><title>68%</title></g></g><g id="labels-6f0b668a"><g transform="rotate(0,0,0) translate(178.5893603228851,301.29579985102293)"><g class="dcg-svg-label"><g transform="translate(-21.422688569955426,-8.962486862741684)"><g><text fill="none" stroke="#FFF" font-family="arial, sans-serif" font-size="15.4px" font-style="normal" font-weight="400" text-decoration="normal" x="0" y="13.822143505859374" text-anchor="start" stroke-linecap="round" stroke-linejoin="round" stroke-miterlimit="2" stroke-width="3" stroke-opacity="0.9" stroke-dasharray="">99.7%</text></g></g><g transform="translate(-21.422688569955426,-8.962486862741684)"><g><text fill="rgb(96, 66, 166)" stroke="none" font-family="arial, sans-serif" font-size="15.4px" font-style="normal" font-weight="400" text-decoration="normal" x="0" y="13.822143505859374" text-anchor="start" fill-opacity="0.9">99.7%</text></g></g></g></g><g transform="rotate(0,0,0) translate(178.5893603228851,264.4913198883228)"><g class="dcg-svg-label"><g transform="translate(-15.006032075814801,-9.157991641252465)"><g><text fill="none" stroke="#FFF" font-family="arial, sans-serif" font-size="15.4px" font-style="normal" font-weight="400" text-decoration="normal" x="0" y="13.822143505859374" text-anchor="start" stroke-linecap="round" stroke-linejoin="round" stroke-miterlimit="2" stroke-width="3" stroke-opacity="0.9" stroke-dasharray="">95%</text></g></g><g transform="translate(-15.006032075814801,-9.157991641252465)"><g><text fill="rgb(45, 112, 179)" stroke="none" font-family="arial, sans-serif" font-size="15.4px" font-style="normal" font-weight="400" text-decoration="normal" x="0" y="13.822143505859374" text-anchor="start" fill-opacity="0.9">95%</text></g></g></g></g><g transform="rotate(0,0,0) translate(178.5893603228851,124.99046841679802)"><g class="dcg-svg-label"><g transform="translate(-15.006032075814801,-8.657140169727711)"><g><text fill="none" stroke="#FFF" font-family="arial, sans-serif" font-size="15.4px" font-style="normal" font-weight="400" text-decoration="normal" x="0" y="13.822143505859374" text-anchor="start" stroke-linecap="round" stroke-linejoin="round" stroke-miterlimit="2" stroke-width="3" stroke-opacity="0.9" stroke-dasharray="">68%</text></g></g><g transform="translate(-15.006032075814801,-8.657140169727711)"><g><text fill="rgb(199, 68, 64)" stroke="none" font-family="arial, sans-serif" font-size="15.4px" font-style="normal" font-weight="400" text-decoration="normal" x="0" y="13.822143505859374" text-anchor="start" fill-opacity="0.9">68%</text></g></g></g></g></g></g></svg>